<?xml version="1.0" standalone="no"?>
<!DOCTYPE svg PUBLIC "-//W3C//DTD SVG 20010904//EN"
 "http://www.w3.org/TR/2001/REC-SVG-20010904/DTD/svg10.dtd">
<svg version="1.0" xmlns="http://www.w3.org/2000/svg"
 width="2560.000000pt" height="2560.000000pt" viewBox="0 0 2560.000000 2560.000000"
 preserveAspectRatio="xMidYMid meet">

<g transform="translate(0.000000,2560.000000) scale(0.100000,-0.100000)"
fill="#000000" stroke="none">
<path d="M6815 23605 c-120 -16 -270 -49 -375 -80 -30 -9 -68 -20 -85 -25
-200 -55 -575 -230 -827 -386 -115 -71 -300 -197 -364 -248 -29 -23 -81 -63
-115 -91 -239 -188 -461 -423 -604 -641 -58 -87 -165 -300 -165 -326 0 -8 -4
-18 -9 -23 -9 -10 -24 -66 -47 -175 -20 -95 -18 -271 5 -363 45 -182 156 -342
307 -447 92 -64 144 -87 347 -154 370 -122 413 -201 312 -566 -29 -106 -47
-184 -72 -310 -21 -110 -24 -432 -5 -505 7 -27 20 -77 28 -110 21 -84 53 -182
77 -235 91 -204 196 -377 342 -560 198 -248 338 -537 414 -851 32 -129 40
-190 55 -382 12 -151 12 -202 0 -350 -13 -167 -32 -325 -53 -437 -9 -49 -20
-103 -51 -249 -23 -103 -106 -367 -122 -385 -4 -6 -8 -16 -8 -22 0 -23 -98
-228 -178 -374 -58 -106 -268 -411 -302 -440 -3 -3 -16 -18 -29 -35 -85 -111
-223 -253 -692 -707 -207 -200 -314 -328 -415 -495 -233 -383 -291 -740 -176
-1073 125 -363 471 -595 932 -625 172 -11 299 -37 360 -74 193 -116 85 -255
-220 -281 -63 -6 -169 -14 -235 -20 -494 -40 -774 -200 -882 -505 -14 -40 -18
-80 -17 -195 0 -133 3 -151 29 -220 203 -545 855 -1171 1825 -1752 321 -193
737 -408 1045 -542 72 -31 139 -61 150 -66 84 -38 149 -65 247 -105 62 -25
122 -50 133 -55 30 -14 248 -98 313 -121 31 -11 66 -25 77 -30 11 -5 85 -34
165 -64 80 -31 164 -65 187 -75 24 -11 46 -20 49 -20 3 0 20 -6 37 -14 18 -8
111 -47 207 -87 154 -63 243 -101 420 -181 25 -11 74 -34 110 -50 36 -16 97
-43 135 -61 73 -32 501 -248 570 -287 22 -13 58 -33 80 -45 392 -213 824 -532
1112 -823 316 -318 476 -557 652 -972 29 -69 59 -138 66 -155 7 -16 32 -75 56
-130 193 -452 425 -789 709 -1029 286 -242 599 -394 1170 -566 58 -17 116 -36
130 -40 14 -5 88 -28 165 -50 77 -22 149 -44 160 -49 11 -4 45 -16 75 -25 432
-135 759 -341 1220 -766 187 -173 224 -204 305 -266 101 -75 178 -121 280
-163 44 -18 89 -37 100 -42 90 -38 317 -38 410 1 148 62 246 145 328 278 29
48 61 107 71 132 10 25 22 54 27 65 8 20 32 99 49 165 32 120 49 287 60 600
11 321 32 435 112 595 72 146 227 294 498 476 174 116 341 271 450 414 82 109
116 171 163 295 63 169 85 287 92 490 13 363 43 484 142 571 46 40 174 100
306 143 297 97 522 223 684 383 151 148 243 294 362 576 95 227 173 323 316
391 90 42 168 63 380 101 113 20 206 44 270 68 28 10 59 21 69 24 48 15 189
90 276 148 310 207 480 522 480 890 0 363 -157 666 -485 937 -60 50 -192 135
-275 178 -245 126 -337 186 -448 294 -129 125 -219 260 -290 438 -49 122 -92
394 -92 585 0 147 36 526 61 643 5 25 19 90 30 145 34 160 67 291 113 445 15
50 44 149 56 195 5 17 21 71 35 120 114 387 171 799 162 1170 -5 202 -18 366
-37 485 -25 152 -42 248 -50 285 -5 22 -16 74 -25 115 -18 80 -54 228 -86 350
-21 78 -27 98 -54 190 -9 30 -22 78 -30 105 -7 28 -20 70 -28 95 -17 51 -61
199 -84 280 -8 30 -19 66 -23 80 -13 36 -85 341 -104 435 -17 83 -37 239 -57
435 -20 205 -4 673 30 870 6 30 15 84 21 120 85 496 326 1064 629 1485 35 50
100 135 144 190 89 110 390 416 507 514 107 91 284 265 344 341 114 143 177
271 201 406 12 71 12 91 -1 152 -26 126 -97 216 -211 269 -32 14 -69 31 -82
37 -32 15 -265 14 -321 -1 -42 -11 -96 -25 -295 -74 -57 -14 -116 -20 -205
-21 -113 -1 -132 2 -200 27 -142 52 -189 80 -453 264 -181 126 -255 171 -397
241 -279 138 -549 194 -832 171 -261 -22 -486 -108 -698 -268 -65 -49 -222
-206 -272 -271 -24 -32 -46 -58 -50 -60 -5 -2 -8 -7 -8 -12 0 -4 -15 -31 -34
-58 -45 -67 -132 -238 -163 -321 -108 -287 -290 -473 -531 -542 -83 -24 -226
-25 -303 -3 -141 40 -179 59 -514 255 -60 35 -148 84 -195 108 -47 25 -99 52
-117 62 -18 10 -83 39 -145 64 -62 25 -122 50 -133 54 -56 25 -307 93 -445
120 -30 6 -100 15 -155 21 -55 5 -120 13 -145 17 -25 3 -301 7 -615 7 -434 1
-582 4 -620 14 -27 7 -70 18 -95 24 -158 36 -388 137 -540 238 -108 71 -296
227 -354 291 -21 24 -57 64 -80 89 -23 25 -79 90 -125 145 -204 247 -459 473
-657 586 -83 47 -181 97 -204 104 -14 4 -47 18 -75 30 -138 63 -389 124 -592
145 -264 27 -548 19 -898 -25 -66 -8 -154 -19 -195 -24 -114 -14 -236 -30
-329 -42 -46 -6 -177 -12 -290 -13 -240 -1 -317 12 -446 74 -104 50 -189 133
-275 269 -101 160 -170 255 -235 323 -204 215 -479 349 -812 398 -94 13 -364
11 -478 -5z m250 -616 c196 -26 337 -84 442 -182 73 -69 118 -134 179 -260
111 -229 170 -319 290 -443 215 -221 467 -348 794 -399 58 -9 127 -20 153 -26
63 -12 415 -12 509 1 40 5 150 16 243 25 94 8 208 20 255 26 121 17 490 17
570 1 36 -7 90 -18 120 -24 79 -15 221 -63 293 -99 157 -79 299 -207 420 -380
34 -48 103 -145 152 -216 119 -169 213 -282 359 -432 341 -348 661 -545 1091
-671 17 -4 68 -16 115 -25 47 -9 103 -20 125 -25 107 -24 309 -31 544 -21 132
6 246 13 253 16 7 2 51 9 98 15 47 6 132 18 190 26 360 50 421 55 620 56 256
2 349 -12 565 -84 83 -28 201 -77 255 -106 308 -165 379 -197 585 -262 68 -21
291 -42 380 -36 232 17 381 55 570 147 189 91 395 263 529 443 73 97 172 268
210 361 16 39 34 84 41 100 7 17 23 55 35 85 69 170 147 305 239 409 57 66
195 176 241 192 14 5 34 13 45 18 110 49 197 63 350 58 142 -5 202 -15 315
-54 86 -29 256 -111 303 -147 85 -63 371 -226 398 -226 6 0 25 -6 42 -14 131
-59 362 -95 498 -76 87 12 189 35 224 50 11 4 56 23 100 40 44 18 103 43 130
55 103 45 162 65 238 80 157 29 257 -22 257 -131 0 -107 -163 -300 -393 -467
-408 -295 -616 -474 -842 -723 -273 -302 -482 -608 -663 -974 -69 -138 -93
-189 -137 -295 -41 -97 -117 -315 -141 -404 -55 -202 -79 -308 -110 -476 -89
-483 -87 -1105 5 -1650 5 -27 14 -84 20 -125 6 -41 16 -93 21 -115 5 -22 16
-83 25 -135 9 -52 20 -117 25 -145 5 -27 16 -102 25 -165 9 -63 20 -144 26
-180 22 -145 32 -288 36 -548 6 -357 -12 -520 -93 -847 -37 -144 -116 -393
-174 -540 -77 -196 -121 -315 -170 -465 -36 -108 -62 -201 -103 -365 -38 -150
-46 -192 -88 -465 -22 -141 -16 -565 10 -725 55 -343 125 -556 261 -800 250
-451 631 -788 1155 -1022 168 -74 203 -92 257 -126 74 -48 161 -135 188 -187
12 -23 24 -63 27 -90 10 -90 -55 -179 -173 -235 -55 -26 -77 -32 -249 -70
-328 -73 -501 -138 -680 -256 -228 -150 -405 -384 -528 -694 -19 -49 -52 -133
-72 -185 -92 -232 -190 -317 -534 -460 -362 -151 -529 -272 -664 -482 -81
-126 -118 -222 -151 -393 -17 -89 -36 -377 -36 -547 0 -131 -17 -211 -68 -318
-28 -61 -54 -93 -131 -170 -53 -53 -121 -113 -151 -134 -60 -41 -76 -52 -195
-141 -251 -186 -435 -451 -515 -740 -42 -155 -59 -391 -41 -585 35 -370 39
-474 25 -621 -12 -139 -18 -172 -51 -269 -20 -63 -67 -141 -101 -172 -16 -14
-52 -32 -80 -41 -65 -19 -125 -8 -201 34 -129 73 -208 151 -466 459 -71 85
-139 166 -152 179 -12 14 -41 48 -65 77 -65 80 -442 451 -533 526 -163 133
-385 278 -567 371 -116 59 -242 117 -253 117 -2 0 -28 11 -57 24 -59 26 -193
78 -265 102 -140 47 -341 153 -438 231 -170 138 -316 348 -395 568 -12 33 -25
69 -30 80 -13 29 -45 136 -96 320 -88 319 -154 513 -229 673 -14 29 -25 55
-25 58 0 15 -137 276 -204 387 -267 445 -588 769 -1066 1074 -162 104 -446
256 -590 318 -30 13 -89 39 -130 58 -112 52 -250 110 -390 162 -561 210 -870
313 -1508 500 -85 26 -130 38 -249 71 -32 9 -69 20 -83 24 -32 11 -224 67
-270 80 -449 124 -1052 323 -1257 416 -17 8 -34 14 -37 14 -3 0 -31 12 -63 26
-32 14 -68 29 -80 35 -58 24 -71 29 -118 50 -27 12 -77 34 -110 49 -33 15 -82
37 -110 50 -147 65 -368 178 -530 270 -22 12 -76 43 -120 68 -438 248 -855
577 -1015 799 -90 126 -153 261 -158 340 -7 100 3 129 61 187 61 60 185 125
292 150 39 10 84 21 100 26 17 5 71 12 120 15 215 15 333 40 450 94 132 62
215 153 243 264 48 188 -54 361 -273 467 -112 54 -153 66 -309 85 -163 21
-217 35 -299 76 -197 101 -306 314 -264 514 66 312 304 607 835 1032 81 65
149 120 152 123 3 3 36 32 75 65 38 33 86 74 105 90 108 92 414 401 511 515
81 95 246 311 320 420 278 407 446 804 515 1220 24 143 24 536 0 695 -19 123
-41 242 -55 295 -39 145 -84 295 -100 335 -5 11 -28 67 -51 125 -147 359 -321
631 -705 1096 -171 208 -218 268 -272 344 -96 137 -137 219 -202 410 -18 50
-25 282 -12 365 40 267 44 308 32 405 -20 159 -72 286 -168 407 -102 130 -212
208 -403 288 -231 96 -295 149 -340 281 -69 199 60 487 351 785 268 275 818
618 1225 765 213 77 331 108 494 128 135 18 196 19 295 5z"/>
<path d="M9130 19004 c-107 -11 -224 -28 -290 -44 -585 -143 -1051 -609 -1193
-1193 -14 -56 -30 -129 -36 -163 -16 -86 -15 -7140 0 -7233 78 -469 312 -850
684 -1113 165 -116 395 -217 600 -261 l100 -22 3850 0 c3684 0 3854 1 3935 18
483 104 876 396 1122 837 32 58 128 294 128 316 0 13 -7 15 -42 10 -242 -34
-552 -29 -868 14 -513 69 -1054 291 -1490 613 -555 410 -980 1001 -1194 1660
-5 16 -41 17 -561 17 l-555 0 0 -1182 c0 -651 -4 -1189 -9 -1196 -8 -14 -1
-17 -356 150 -315 149 -431 221 -530 330 -111 123 -157 273 -174 573 -5 83 -8
651 -6 1264 2 929 5 1115 16 1121 8 5 465 7 1015 6 l1001 -1 6 80 c26 344 52
501 126 764 114 401 318 801 570 1119 36 46 79 100 94 120 33 43 160 175 274
283 329 313 813 596 1238 724 50 15 117 35 150 45 78 24 177 45 295 64 52 8
124 20 160 27 36 6 192 14 347 16 260 5 368 0 516 -24 l39 -6 -5 429 c-4 418
-5 432 -30 551 -101 465 -403 866 -822 1092 -206 111 -403 169 -645 191 -104
9 -7363 13 -7460 4z m3158 -825 c226 -25 415 -90 597 -207 308 -198 530 -525
602 -890 24 -122 23 -395 -1 -512 -64 -301 -220 -571 -441 -764 -237 -206
-514 -316 -832 -333 -376 -19 -735 120 -1009 392 -156 155 -261 323 -332 530
-56 164 -66 233 -67 430 0 193 11 269 61 422 79 243 251 492 449 650 185 147
447 254 690 281 114 13 173 13 283 1z m-2231 -1584 c101 -19 236 -86 328 -163
68 -56 299 -295 589 -607 77 -83 357 -368 623 -634 l483 -483 -2 -522 -3 -521
-530 0 -530 0 -5 325 -5 325 -500 496 c-275 272 -716 709 -980 971 -264 262
-556 550 -649 640 -93 91 -166 169 -163 175 4 7 217 11 636 12 517 1 644 -2
708 -14z m5553 0 c0 -7 -145 -155 -322 -330 -359 -353 -932 -920 -1555 -1539
l-413 -410 0 -316 c0 -232 -3 -319 -12 -328 -9 -9 -139 -12 -524 -12 -282 0
-519 3 -528 6 -14 5 -16 61 -16 523 l0 517 152 150 c439 430 755 752 1087
1109 382 410 505 522 643 584 55 25 87 34 193 55 11 2 307 4 658 4 504 -1 637
-3 637 -13z m-3545 -3073 c14 -10 18 -2215 4 -2420 -11 -173 -26 -258 -64
-358 -70 -187 -167 -274 -477 -433 -84 -43 -187 -93 -228 -111 -41 -18 -119
-55 -174 -81 -54 -27 -102 -46 -107 -43 -5 3 -9 734 -9 1724 0 1365 3 1719 13
1723 20 8 1031 7 1042 -1z"/>
<path d="M17535 15753 c-242 -34 -545 -109 -545 -134 0 -23 73 -154 124 -223
162 -219 476 -356 874 -382 l102 -7 0 381 0 382 -227 -1 c-134 -1 -269 -8
-328 -16z"/>
<path d="M16802 15559 c-182 -70 -572 -307 -572 -347 0 -23 56 -97 119 -157
59 -56 199 -164 213 -165 4 0 29 -13 55 -29 138 -85 445 -189 713 -241 88 -17
143 -24 350 -50 70 -8 272 -15 368 -11 l42 1 0 154 0 153 -37 7 c-21 3 -59 6
-85 6 -106 0 -319 43 -463 92 -269 93 -507 303 -615 542 -16 36 -30 66 -32 65
-2 0 -27 -9 -56 -20z"/>
<path d="M15984 15008 c-66 -68 -144 -154 -175 -193 -64 -80 -172 -239 -190
-279 -12 -25 -10 -29 17 -51 44 -37 192 -128 254 -157 132 -61 174 -78 320
-126 164 -54 180 -58 475 -122 264 -57 754 -107 1132 -117 l273 -6 0 195 0
195 -207 6 c-303 9 -502 39 -798 122 -466 130 -826 362 -954 613 -12 23 -23
42 -25 42 -2 0 -57 -55 -122 -122z"/>
<path d="M15504 14313 c-100 -234 -166 -509 -176 -728 l-3 -60 1380 2 1380 2
3 155 3 156 -43 0 c-285 2 -834 40 -1153 79 -540 67 -1064 226 -1322 402 -23
16 -44 29 -47 29 -3 0 -13 -17 -22 -37z"/>
<path d="M15330 13295 c0 -68 26 -225 60 -363 28 -117 114 -351 145 -399 l15
-23 57 37 c348 222 1177 388 2118 423 143 5 284 10 313 10 l52 0 0 180 0 180
-1380 0 -1380 0 0 -45z"/>
<path d="M17505 12774 c-396 -25 -592 -49 -980 -120 -132 -24 -403 -97 -531
-142 -103 -37 -296 -127 -338 -157 -18 -13 -17 -15 5 -52 63 -105 206 -282
324 -402 73 -73 137 -132 142 -130 5 2 31 28 57 58 117 132 251 228 461 331
313 153 699 245 1136 270 101 6 212 13 247 16 l62 6 0 169 0 169 -192 -1
c-106 -1 -283 -8 -393 -15z"/>
<path d="M17770 12254 c-109 -7 -394 -45 -525 -70 -83 -16 -358 -96 -410 -119
-158 -71 -234 -110 -308 -159 -101 -66 -257 -210 -257 -236 0 -41 323 -234
535 -320 l95 -39 14 22 c7 12 30 51 51 87 136 236 337 388 629 476 98 30 326
64 424 64 l72 0 0 150 0 150 -137 -2 c-76 -1 -158 -3 -183 -4z"/>
<path d="M18015 11783 c-354 -29 -510 -69 -670 -171 -83 -53 -190 -160 -263
-266 l-53 -76 25 -10 c47 -17 211 -60 291 -74 180 -34 323 -46 532 -46 l213 0
-2 322 c-3 279 -5 323 -18 324 -8 0 -33 -1 -55 -3z"/>
</g>
</svg>
